<mxfile host="Electron" modified="2023-05-04T12:05:56.530Z" agent="Mozilla/5.0 (Windows NT 10.0; Win64; x64) AppleWebKit/537.36 (KHTML, like Gecko) draw.io/21.1.2 Chrome/106.0.5249.199 Electron/21.4.3 Safari/537.36" etag="GH0pCXkq8xM1vzMBcDh4" version="21.1.2" type="device">
  <diagram name="Page-1" id="UjeIHkmK6OG8sHjkDCKj">
    <mxGraphModel dx="864" dy="1575" grid="1" gridSize="10" guides="1" tooltips="1" connect="1" arrows="1" fold="1" page="1" pageScale="1" pageWidth="850" pageHeight="1100" math="0" shadow="0">
      <root>
        <mxCell id="0" />
        <mxCell id="1" parent="0" />
        <mxCell id="mZ1df6mLhHkYHSEJEPaS-1" value="User" style="swimlane;childLayout=stackLayout;horizontal=1;startSize=40;horizontalStack=0;rounded=1;fontSize=14;fontStyle=0;strokeWidth=2;resizeParent=0;resizeLast=1;shadow=0;dashed=0;align=center;arcSize=4;whiteSpace=wrap;html=1;labelBackgroundColor=none;fillColor=#F2CC8F;strokeColor=#E07A5F;fontColor=#393C56;" vertex="1" parent="1">
          <mxGeometry x="158" y="80" width="160" height="120" as="geometry" />
        </mxCell>
        <mxCell id="mZ1df6mLhHkYHSEJEPaS-2" value="username(str)&lt;br&gt;password(str)" style="align=left;strokeColor=none;fillColor=none;spacingLeft=4;fontSize=12;verticalAlign=top;resizable=0;rotatable=0;part=1;html=1;labelBackgroundColor=none;fontColor=#393C56;" vertex="1" parent="mZ1df6mLhHkYHSEJEPaS-1">
          <mxGeometry y="40" width="160" height="80" as="geometry" />
        </mxCell>
        <mxCell id="mZ1df6mLhHkYHSEJEPaS-5" value="" style="edgeStyle=entityRelationEdgeStyle;fontSize=12;html=1;endArrow=ERone;startArrow=ERmany;rounded=0;exitX=1;exitY=0.5;exitDx=0;exitDy=0;entryX=0;entryY=0.25;entryDx=0;entryDy=0;labelBackgroundColor=none;strokeColor=#E07A5F;fontColor=default;endFill=0;" edge="1" parent="1" source="mZ1df6mLhHkYHSEJEPaS-2" target="mZ1df6mLhHkYHSEJEPaS-27">
          <mxGeometry width="100" height="100" relative="1" as="geometry">
            <mxPoint x="370" y="300" as="sourcePoint" />
            <mxPoint x="340" y="-80" as="targetPoint" />
          </mxGeometry>
        </mxCell>
        <mxCell id="mZ1df6mLhHkYHSEJEPaS-25" value="belongs to" style="edgeLabel;html=1;align=center;verticalAlign=middle;resizable=0;points=[];labelBackgroundColor=none;fontColor=#393C56;" vertex="1" connectable="0" parent="mZ1df6mLhHkYHSEJEPaS-5">
          <mxGeometry x="-0.2875" y="1" relative="1" as="geometry">
            <mxPoint as="offset" />
          </mxGeometry>
        </mxCell>
        <mxCell id="mZ1df6mLhHkYHSEJEPaS-6" value="customer" style="swimlane;childLayout=stackLayout;horizontal=1;startSize=50;horizontalStack=0;rounded=1;fontSize=14;fontStyle=0;strokeWidth=2;resizeParent=0;resizeLast=1;shadow=0;dashed=0;align=center;arcSize=4;whiteSpace=wrap;html=1;labelBackgroundColor=none;fillColor=#F2CC8F;strokeColor=#E07A5F;fontColor=#393C56;" vertex="1" parent="1">
          <mxGeometry x="190" y="270" width="160" height="120" as="geometry" />
        </mxCell>
        <mxCell id="mZ1df6mLhHkYHSEJEPaS-7" value="FirstName(str)&lt;br&gt;LasName(str)&lt;br&gt;Email(str)&lt;br&gt;phone(str)" style="align=left;strokeColor=none;fillColor=none;spacingLeft=4;fontSize=12;verticalAlign=top;resizable=0;rotatable=0;part=1;html=1;labelBackgroundColor=none;fontColor=#393C56;" vertex="1" parent="mZ1df6mLhHkYHSEJEPaS-6">
          <mxGeometry y="50" width="160" height="70" as="geometry" />
        </mxCell>
        <mxCell id="mZ1df6mLhHkYHSEJEPaS-8" value="movies" style="swimlane;childLayout=stackLayout;horizontal=1;startSize=50;horizontalStack=0;rounded=1;fontSize=14;fontStyle=0;strokeWidth=2;resizeParent=0;resizeLast=1;shadow=0;dashed=0;align=center;arcSize=4;whiteSpace=wrap;html=1;labelBackgroundColor=none;fillColor=#F2CC8F;strokeColor=#E07A5F;fontColor=#393C56;" vertex="1" parent="1">
          <mxGeometry x="490" y="270" width="160" height="120" as="geometry" />
        </mxCell>
        <mxCell id="mZ1df6mLhHkYHSEJEPaS-9" value="barcode(str)&lt;br&gt;dailyRentalRate(float)&lt;br&gt;NumberInStock(int)" style="align=left;strokeColor=none;fillColor=none;spacingLeft=4;fontSize=12;verticalAlign=top;resizable=0;rotatable=0;part=1;html=1;labelBackgroundColor=none;fontColor=#393C56;" vertex="1" parent="mZ1df6mLhHkYHSEJEPaS-8">
          <mxGeometry y="50" width="160" height="70" as="geometry" />
        </mxCell>
        <mxCell id="mZ1df6mLhHkYHSEJEPaS-14" value="Rental" style="swimlane;childLayout=stackLayout;horizontal=1;startSize=50;horizontalStack=0;rounded=1;fontSize=14;fontStyle=0;strokeWidth=2;resizeParent=0;resizeLast=1;shadow=0;dashed=0;align=center;arcSize=4;whiteSpace=wrap;html=1;labelBackgroundColor=none;fillColor=#F2CC8F;strokeColor=#E07A5F;fontColor=#393C56;" vertex="1" parent="1">
          <mxGeometry x="170" y="520" width="160" height="120" as="geometry" />
        </mxCell>
        <mxCell id="mZ1df6mLhHkYHSEJEPaS-15" value="rentDate(date)&lt;br&gt;returnDate(date)" style="align=left;strokeColor=none;fillColor=none;spacingLeft=4;fontSize=12;verticalAlign=top;resizable=0;rotatable=0;part=1;html=1;labelBackgroundColor=none;fontColor=#393C56;" vertex="1" parent="mZ1df6mLhHkYHSEJEPaS-14">
          <mxGeometry y="50" width="160" height="70" as="geometry" />
        </mxCell>
        <mxCell id="mZ1df6mLhHkYHSEJEPaS-21" value="coupon" style="swimlane;childLayout=stackLayout;horizontal=1;startSize=50;horizontalStack=0;rounded=1;fontSize=14;fontStyle=0;strokeWidth=2;resizeParent=0;resizeLast=1;shadow=0;dashed=0;align=center;arcSize=4;whiteSpace=wrap;html=1;labelBackgroundColor=none;fillColor=#F2CC8F;strokeColor=#E07A5F;fontColor=#393C56;" vertex="1" parent="1">
          <mxGeometry x="540" y="500" width="160" height="120" as="geometry" />
        </mxCell>
        <mxCell id="mZ1df6mLhHkYHSEJEPaS-22" value="code&lt;br&gt;description&lt;br&gt;discount" style="align=left;strokeColor=none;fillColor=none;spacingLeft=4;fontSize=12;verticalAlign=top;resizable=0;rotatable=0;part=1;html=1;labelBackgroundColor=none;fontColor=#393C56;" vertex="1" parent="mZ1df6mLhHkYHSEJEPaS-21">
          <mxGeometry y="50" width="160" height="70" as="geometry" />
        </mxCell>
        <mxCell id="mZ1df6mLhHkYHSEJEPaS-26" value="Role" style="swimlane;childLayout=stackLayout;horizontal=1;startSize=50;horizontalStack=0;rounded=1;fontSize=14;fontStyle=0;strokeWidth=2;resizeParent=0;resizeLast=1;shadow=0;dashed=0;align=center;arcSize=4;whiteSpace=wrap;html=1;labelBackgroundColor=none;fillColor=#F2CC8F;strokeColor=#E07A5F;fontColor=#393C56;" vertex="1" parent="1">
          <mxGeometry x="550" y="90" width="160" height="120" as="geometry" />
        </mxCell>
        <mxCell id="mZ1df6mLhHkYHSEJEPaS-27" value="name(str)" style="align=left;strokeColor=none;fillColor=none;spacingLeft=4;fontSize=12;verticalAlign=top;resizable=0;rotatable=0;part=1;html=1;labelBackgroundColor=none;fontColor=#393C56;" vertex="1" parent="mZ1df6mLhHkYHSEJEPaS-26">
          <mxGeometry y="50" width="160" height="70" as="geometry" />
        </mxCell>
        <mxCell id="mZ1df6mLhHkYHSEJEPaS-29" value="" style="edgeStyle=entityRelationEdgeStyle;fontSize=12;html=1;endArrow=ERone;startArrow=ERmany;rounded=0;exitX=1;exitY=0.175;exitDx=0;exitDy=0;exitPerimeter=0;endFill=0;" edge="1" parent="1" source="mZ1df6mLhHkYHSEJEPaS-14" target="mZ1df6mLhHkYHSEJEPaS-7">
          <mxGeometry width="100" height="100" relative="1" as="geometry">
            <mxPoint x="330" y="560" as="sourcePoint" />
            <mxPoint x="430" y="460" as="targetPoint" />
          </mxGeometry>
        </mxCell>
        <mxCell id="mZ1df6mLhHkYHSEJEPaS-30" value="" style="edgeStyle=entityRelationEdgeStyle;fontSize=12;html=1;endArrow=ERone;startArrow=ERmany;rounded=0;entryX=0;entryY=0.5;entryDx=0;entryDy=0;endFill=0;" edge="1" parent="1" target="mZ1df6mLhHkYHSEJEPaS-22">
          <mxGeometry width="100" height="100" relative="1" as="geometry">
            <mxPoint x="330" y="600" as="sourcePoint" />
            <mxPoint x="430" y="500" as="targetPoint" />
          </mxGeometry>
        </mxCell>
        <mxCell id="mZ1df6mLhHkYHSEJEPaS-31" value="" style="edgeStyle=entityRelationEdgeStyle;fontSize=12;html=1;endArrow=ERone;startArrow=ERmany;rounded=0;exitX=1;exitY=0.25;exitDx=0;exitDy=0;endFill=0;" edge="1" parent="1" source="mZ1df6mLhHkYHSEJEPaS-15">
          <mxGeometry width="100" height="100" relative="1" as="geometry">
            <mxPoint x="330" y="580" as="sourcePoint" />
            <mxPoint x="490" y="380" as="targetPoint" />
          </mxGeometry>
        </mxCell>
        <mxCell id="mZ1df6mLhHkYHSEJEPaS-33" value="&lt;b&gt;&lt;font style=&quot;font-size: 14px;&quot;&gt;&lt;u&gt;Logical framework(Vidly Database)&lt;/u&gt;&lt;/font&gt;&lt;/b&gt;" style="text;html=1;align=center;verticalAlign=middle;resizable=0;points=[];autosize=1;strokeColor=none;fillColor=none;" vertex="1" parent="1">
          <mxGeometry x="265" y="-10" width="260" height="30" as="geometry" />
        </mxCell>
      </root>
    </mxGraphModel>
  </diagram>
</mxfile>
